<?xml version="1.0" encoding="utf-8"?>
<!-- Generator: Adobe Illustrator 26.4.1, SVG Export Plug-In . SVG Version: 6.00 Build 0)  -->
<svg version="1.1" id="Слой_1" xmlns="http://www.w3.org/2000/svg" xmlns:xlink="http://www.w3.org/1999/xlink" x="0px" y="0px"
	 viewBox="0 0 144 144" style="enable-background:new 0 0 144 144;" xml:space="preserve">
<style type="text/css">
	.st0{fill:#7FCEFF;}
	.st1{fill:#5FA7FF;}
	.st2{fill:#5F88FF;}
	.st3{fill:none;stroke:#5F88FF;stroke-miterlimit:10;}
</style>
<g transform="translate(0.000000,720.000000) scale(0.100000,-0.100000)">
	<path class="st0" d="M668.46,7095.81c-0.64-1.13-6.01-2.71-12.03-3.61c-24.27-3.38-80.54-27.73-104.17-45.09
		c-50.69-37.2-85.27-82.29-107.18-139.55c-21.91-56.81-22.77-136.39-2.36-195.68c18.04-52.75,53.27-102.12,98.8-137.74
		c18.04-14.2,59.92-37.65,76.25-42.61c5.37-1.58,10.74-3.61,11.81-4.28c1.29-0.9,10.95-3.61,21.48-5.86
		c15.68-3.38,28.57-4.28,67.66-4.28c50.69,0,63.58,1.8,95.58,12.85c16.32,5.64,52.62,23.9,66.58,33.59
		c51.76,35.62,93.43,90.63,112.12,147.44c9.45,28.41,11.38,37.87,13.96,65.38c2.58,29.31,0.21,79.58-4.51,94.68
		c-1.29,3.83-4.73,15.33-7.95,25.93c-13.53,45.76-48.76,99.64-84.19,129.18c-29.64,24.8-67.44,47.12-93.86,55.68
		c-4.73,1.58-10.52,3.61-12.89,4.73c-16.32,6.99-38.66,9.69-85.27,10.37C690.8,7097.39,669.11,7096.94,668.46,7095.81z"/>
	<path class="st0" d="M285.96,7056.08c-47.58-7.64-89.57-29.7-124.02-65.34c-31.87-32.67-47.58-61.31-57.06-104.37
		c-0.86-4.67-1.72-21.85-1.72-38.18c0-29.7,0.86-36.27,7.11-58.55c11.84-42.85,46.94-88.46,88.06-115.19
		c37.89-24.4,71.05-34.79,116.7-36.7c32.08-1.06,48.01,0.42,74.93,7.64c22.39,5.73,28.21,8.7,29.07,14.64
		c0.43,2.76-3.66,14.64-9.04,26.73c-5.38,11.88-9.9,22.91-9.9,24.18c0,1.48-1.94,8.06-4.31,14.64
		c-9.47,27.37-14.43,72.55-11.2,102.04c3.23,28.85,6.03,43.91,11.2,59.61c2.37,7.42,4.31,14.43,4.31,15.49
		c0,2.12,2.37,7.64,13.99,32.46c8.83,19.3,28.85,51.12,38.54,61.52c7.54,7.85,9.26,13.79,6.46,21c-0.65,1.91-2.15,3.39-3.23,3.39
		s-6.89,3.18-13.13,7.21C401.36,7054.17,340.43,7064.99,285.96,7056.08z"/>
	<path class="st0" d="M1074.84,7057.14c-11.84-1.7-18.95-3.39-45.21-11.88c-9.69-2.97-30.79-13.58-45.43-22.7
		c-11.2-7-12.49-14.85-3.66-22.91c13.35-12.09,42.42-61.52,53.83-91.85c26.91-70.64,22.82-157.62-10.12-224.65
		c-7.75-15.7-8.18-25.67-1.29-29.91c5.17-3.18,35.09-11.46,52.1-14c13.99-2.33,59.86-2.33,72.13,0
		c34.45,6.15,62.65,16.97,91.94,35.43c16.15,9.76,51.24,44.76,62.01,61.09c9.9,15.27,22.61,40.94,22.61,45.61
		c0,1.91,0.86,4.24,1.94,5.52c1.29,1.06,3.23,9.12,4.52,17.82c1.29,8.7,3.44,20.79,4.74,26.94c1.29,5.94,1.72,15.49,1.08,21.21
		c-5.6,46.03-10.33,63.43-24.54,89.73c-12.27,22.49-14.86,25.88-35.96,47.94c-32.3,33.52-61.58,49.64-117.56,64.7
		C1147.4,7058.2,1090.77,7059.47,1074.84,7057.14z"/>
	<path class="st1" d="M232.13,6579.62c-35.09-4.67-70.41-18.67-96.46-38.18c-28.64-21.43-45.86-46.03-63.73-91.01
		c-4.52-11.03-9.04-22.27-9.9-24.82c-3.66-8.7-21.1-60.88-24.54-72.76c-1.72-6.36-5.38-18.24-7.97-26.52
		c-6.67-21.21-14.43-49.22-23.47-83.79c-1.29-5.3-3.23-11.46-4.31-13.79c-2.8-6.36-4.31-32.46-3.01-44.97
		c1.29-8.91,3.01-12.52,9.9-19.73c4.74-4.67,12.49-10.39,17.44-12.73c8.83-4.24,13.35-4.24,139.3-3.82l130.26,0.64l8.18,25.46
		c4.52,14,9.47,28.85,11.2,32.88c1.51,4.03,5.38,15.49,8.61,25.46c5.38,17.18,12.27,36.49,16.15,45.61
		c1.08,2.33,5.38,13.36,9.9,24.4c29.07,73.61,60.07,111.37,121.43,148.07c14.86,8.7,52.1,24.4,64.59,26.94
		c20.02,4.24,22.18,13.58,7.75,32.46c-31.43,40.73-77.29,62.58-147.7,70.43C312.4,6397.99,237.28,6548.98,232.13,6579.62z"/>
	<path class="st1" d="M1016.92,6579.84c-50.81-7.64-90.43-27.58-122.08-61.31c-15.07-16.33-19.38-23.76-18.52-31.61
		c0.86-6.79,3.01-7.85,37.25-19.73c58.56-20.15,97.32-49,130.48-97.37c15.29-22.49,31.22-51.55,41.77-76.58
		c12.27-28.85,16.58-39.46,19.59-48.58c1.72-5.3,4.09-11.46,5.17-13.79s5.17-13.36,8.83-24.4c3.88-11.03,10.12-28.64,13.78-39.24
		l6.67-19.09l131.77-0.64c129.83-0.42,131.98-0.42,141.24,4.03c5.38,2.33,13.56,8.7,18.52,13.79l8.61,9.33v22.49
		c0,16.55-1.08,26.09-4.09,35.64c-2.37,7-6.24,19.73-8.61,27.79c-19.59,68.73-34.66,113.07-57.27,169.71
		c-22.61,56.22-43.28,87.61-71.7,108.61c-30.36,22.49-67.18,35.21-118.85,40.94C1150,6410,1031.78,6581.96,1016.92,6579.84z"/>
	<path class="st1" d="M675.23,6366.94c-36.98,37.64-90.75,101.84-93.99,100.98c-20.02-5.3-50.38-15.7-61.36-20.58
		c-20.88-9.55-48.44-29.91-69.11-51.12c-17.66-17.82-21.96-23.97-33.37-46.03c-7.11-14-16.15-33.52-20.02-43.49
		c-3.88-9.97-7.97-19.94-9.04-22.27s-3.66-9.55-5.81-15.91c-2.37-6.36-7.97-23.12-12.7-37.12c-4.95-14-11.84-35.43-15.72-47.73
		c-3.88-12.3-7.75-24.18-8.83-26.52c-0.86-2.33-3.23-9.97-5.17-16.97c-1.94-7-5.38-19.3-7.75-27.58
		c-9.69-32.67-26.91-98.22-32.08-120.92c-3.44-15.27-2.37-35.21,2.37-45.61c5.6-12.09,12.92-19.73,27.99-28.85l12.27-7.21h386.47
		h386.26l10.55,5.73c13.13,7,19.38,12.3,25.41,21.85c7.32,11.67,10.55,23.55,9.26,36.27c-1.51,17.61-14.64,69.37-31.65,123.89
		c-2.37,8.27-6.03,20.15-7.75,26.52c-1.72,6.36-4.09,13.58-5.17,15.91s-3.01,8.06-4.31,12.73c-1.29,4.67-3.23,10.39-4.31,12.73
		s-3.01,8.06-4.31,12.73s-3.23,10.39-4.31,12.73c-0.86,2.33-5.81,15.7-10.55,29.7c-4.95,14-10.77,29.7-13.13,35
		c-2.15,5.3-6.24,15.27-8.83,22.27c-6.24,16.12-30.36,65.34-36.82,75.52c-16.36,25.03-23.25,34.15-34.88,46.25
		c-34.66,35.64-78.16,55.79-153.08,70.43c-13.78,2.76-122.62-139.39-132.62-129.39c-2.7-2.7-12.95,5.44-26.56,18.74"/>
</g>
<path class="st2" d="M70.91,85.91"/>
<line class="st2" x1="70.25" y1="85.75" x2="70.59" y2="85.93"/>
<g>
	<path class="st2" d="M72.51,81c0.55,0.76,1.1,1.53,1.65,2.29c-0.02,0.02-0.04,0.05-0.06,0.07c-0.22,0.19-0.42,0.41-0.59,0.64h-0.03
		l-0.04,0.04l-0.22,0.23l-0.3,0.3l-0.25,0.24l-0.35,0.32l-0.37,0.32l-0.4,0.3l-0.33,0.18l-0.17,0.03H71l-0.03-0.01l-0.06-0.04
		l-0.03,0.03l-0.06,0.02h-0.07l-0.07-0.01l-0.07-0.02l-0.19-0.08l-0.2-0.12L70,85.58l-0.28-0.21l-0.33-0.28l-0.64-0.58L68.22,84
		c-0.11-0.11-0.21-0.21-0.33-0.31c-0.03-0.03-0.05-0.06-0.08-0.09c-0.04-0.04-0.07-0.08-0.11-0.12c-0.02-0.02-0.07-0.09-0.1-0.13
		c-0.01-0.01-0.02-0.02-0.02-0.03c0.55-0.77,1.11-1.55,1.67-2.32L66,76c0.93-0.39,2.42-0.9,4.34-1c2.61-0.13,4.64,0.57,5.66,1
		C74.84,77.67,73.67,79.33,72.51,81z"/>
</g>
<line class="st2" x1="68" y1="83" x2="68" y2="83"/>
<g>
	<g>
		<path class="st3" d="M84.7,82.7"/>
	</g>
</g>
</svg>
