<?xml version="1.0" encoding="utf-8"?>
<!-- Generator: Adobe Illustrator 26.4.1, SVG Export Plug-In . SVG Version: 6.00 Build 0)  -->
<svg version="1.1" id="Слой_1" xmlns="http://www.w3.org/2000/svg" xmlns:xlink="http://www.w3.org/1999/xlink" x="0px" y="0px"
	 viewBox="0 0 374 344" style="enable-background:new 0 0 374 344;" xml:space="preserve">
<style type="text/css">
	.st0{fill:#8E9DE7;}
	.st1{fill:#FFFFFF;stroke:#FFFFFF;stroke-width:2;stroke-miterlimit:10;}
	.st2{fill:#FFCA40;}
	.st3{fill:#EBA83B;}
	.st4{fill:#FFFFFF;stroke:#BFBFBF;stroke-miterlimit:10;}
	.st5{fill:#B86543;}
	.st6{fill:#DEE0DD;}
	.st7{fill:#3FC6FF;}
	.st8{fill:#8CC599;}
	.st9{fill:#8CC599;stroke:#407F55;stroke-width:4;stroke-miterlimit:10;}
	.st10{fill:#2A5136;}
	.st11{font-family:'TimesNewRomanPSMT';}
	.st12{font-size:48px;}
	.st13{fill:#D19534;}
	.st14{fill:#FBD254;}
	.st15{font-size:36px;}
	.st16{fill:none;stroke:#FFE252;stroke-width:4;stroke-miterlimit:10;}
	.st17{fill:#7088E0;}
	.st18{fill:#60C17D;}
	.st19{fill:#F4F9F5;}
	.st20{fill:#262A3C;stroke:#262A3C;stroke-width:2;stroke-miterlimit:10;}
	.st21{fill:none;stroke:#262A3C;stroke-width:2;stroke-miterlimit:10;}
	.st22{fill:#83EC9B;stroke:#83EC9B;stroke-width:3;stroke-miterlimit:10;}
	.st23{fill:#F9F9F9;}
	.st24{font-family:'Rockwell-ExtraBold';}
	.st25{font-size:20.2163px;}
</style>
<circle class="st0" cx="211.08" cy="190.06" r="148.33"/>
<rect x="47.75" y="139.72" class="st1" width="105" height="136"/>
<rect x="87.75" y="170.39" class="st2" width="67.67" height="106.67"/>
<polyline class="st2" points="51.58,277.06 87.75,170.39 87.75,277.06 "/>
<rect x="56.02" y="266.96" class="st3" width="99.39" height="10.1"/>
<polyline class="st2" points="121.08,75.64 41.75,75.64 41.75,138.81 121.08,138.81 131.08,138.81 137.08,138.81 "/>
<polygon class="st2" points="149.75,91.39 124.41,91.39 137.08,138.81 149.75,138.81 "/>
<rect x="149.75" y="4.72" class="st4" width="179" height="266.33"/>
<g>
	<g>
		<path class="st5" d="M170.79,17.6h16.01v4.45h-10.71v4.71h3.23c4.93,0,9,1.69,9,6.86c0,5.37-3.93,7.44-8.86,7.44h-8.68V17.6z
			 M178.92,36.96c2.83,0,4.22-1.03,4.22-3.28c0-2.2-1.46-3.01-4.25-3.01h-2.8v6.29H178.92z"/>
		<path class="st5" d="M192.39,17.6h5.3v9.04h6.96v4.63h-6.96v9.79h-5.3V17.6z M201.6,29.22c0-7.67,3.92-12.06,10.21-12.06
			s10.34,4.43,10.34,12.06c0,7.67-4.05,12.26-10.34,12.26S201.6,36.89,201.6,29.22z M216.71,29.22c0-4.7-1.74-7.48-4.91-7.48
			c-3.16,0-4.91,2.78-4.91,7.48c0,4.7,1.74,7.68,4.91,7.68C214.97,36.91,216.71,33.93,216.71,29.22z"/>
		<path class="st5" d="M229.47,47.82h-4.73l-0.45-7.91v-3.3h23.17v3.3l-0.45,7.91h-4.73v-6.77h-12.8V47.82z M239.29,22.04h-4.54
			c-0.51,2.83-0.73,4.26-1.27,7.14c-1.3,6.76-3.5,10.62-7.3,10.72l-0.82-3.29c1.05-0.37,2.25-2.44,3.36-8.13
			c0.79-4.11,1.17-6.41,1.95-10.88h13.93v21.85h-5.3V22.04z"/>
		<path class="st5" d="M255.84,26.81h5.19V17.6h5.05v9.22h5.19l7.83,14.24h-5.7l-4.93-9.97h-2.4v9.97h-5.05v-9.97h-2.4l-4.93,9.97
			H248L255.84,26.81z M252.79,24.25c-0.81-1.72-1.56-2.13-2.62-2.13c-0.22,0-0.62,0.01-1.02,0.14l-0.87-4.78
			c0.51-0.25,1.27-0.32,1.92-0.32c2.67,0,4.59,0.97,6.21,4.24l2.98,6.31l-4.58,1.05L252.79,24.25z M267.73,27.71l2.98-6.31
			c1.62-3.27,3.54-4.24,6.21-4.24c0.64,0,1.41,0.07,1.92,0.32l-0.87,4.78c-0.39-0.13-0.8-0.14-1.02-0.14
			c-1.07,0-1.82,0.41-2.62,2.13l-2.02,4.5L267.73,27.71z"/>
		<path class="st5" d="M281.96,17.6h14.7v4.45h-9.4v4.71h8v4.45h-8v5.4h9.76v4.45h-15.06V17.6z"/>
		<path class="st5" d="M306.27,22.04h-6.46V17.6h18.22v4.45h-6.46v19.01h-5.3V22.04z"/>
	</g>
</g>
<path class="st6" d="M260.58,82.06h-93c-3.04,0-5.5-2.46-5.5-5.5V64.89c0-3.04,2.46-5.5,5.5-5.5h93c3.04,0,5.5,2.46,5.5,5.5v11.67
	C266.08,79.6,263.62,82.06,260.58,82.06z"/>
<path class="st6" d="M312.18,82.06h-17.53c-1.42,0-2.57-1.15-2.57-2.57V61.96c0-1.42,1.15-2.57,2.57-2.57h17.53
	c1.42,0,2.57,1.15,2.57,2.57v17.53C314.75,80.91,313.6,82.06,312.18,82.06z"/>
<path class="st6" d="M260.58,239.56h-93c-3.04,0-5.5-2.46-5.5-5.5v-11.67c0-3.04,2.46-5.5,5.5-5.5h93c3.04,0,5.5,2.46,5.5,5.5v11.67
	C266.08,237.1,263.62,239.56,260.58,239.56z"/>
<path class="st6" d="M310.68,239.56h-17.53c-1.42,0-2.57-1.15-2.57-2.57v-17.53c0-1.42,1.15-2.57,2.57-2.57h17.53
	c1.42,0,2.57,1.15,2.57,2.57v17.53C313.25,238.41,312.1,239.56,310.68,239.56z"/>
<path class="st6" d="M260.58,200.35h-93c-3.04,0-5.5-2.46-5.5-5.5v-11.67c0-3.04,2.46-5.5,5.5-5.5h93c3.04,0,5.5,2.46,5.5,5.5v11.67
	C266.08,197.89,263.62,200.35,260.58,200.35z"/>
<path class="st6" d="M310.68,199.68h-17.53c-1.42,0-2.57-1.15-2.57-2.57v-17.53c0-1.42,1.15-2.57,2.57-2.57h17.53
	c1.42,0,2.57,1.15,2.57,2.57v17.53C313.25,198.53,312.1,199.68,310.68,199.68z"/>
<path class="st6" d="M260.58,160.47h-93c-3.04,0-5.5-2.46-5.5-5.5v-11.67c0-3.04,2.46-5.5,5.5-5.5h93c3.04,0,5.5,2.46,5.5,5.5v11.67
	C266.08,158.01,263.62,160.47,260.58,160.47z"/>
<path class="st6" d="M311.68,159.81h-17.53c-1.42,0-2.57-1.15-2.57-2.57v-17.53c0-1.42,1.15-2.57,2.57-2.57h17.53
	c1.42,0,2.57,1.15,2.57,2.57v17.53C314.25,158.66,313.1,159.81,311.68,159.81z"/>
<path class="st6" d="M261.41,121.27h-93c-3.04,0-5.5-2.46-5.5-5.5V104.1c0-3.04,2.46-5.5,5.5-5.5h93c3.04,0,5.5,2.46,5.5,5.5v11.67
	C266.91,118.8,264.45,121.27,261.41,121.27z"/>
<path class="st6" d="M312.18,121.27h-17.53c-1.42,0-2.57-1.15-2.57-2.57v-17.53c0-1.42,1.15-2.57,2.57-2.57h17.53
	c1.42,0,2.57,1.15,2.57,2.57v17.53C314.75,120.12,313.6,121.27,312.18,121.27z"/>
<path class="st7" d="M56.02,266.96"/>
<polyline class="st2" points="46.77,75.64 3.91,75.47 3.75,74.72 46.77,74.72 3.75,74.72 46.77,276.7 "/>
<g>
	
		<rect x="193.61" y="195.89" transform="matrix(0.5 -0.866 0.866 0.5 -100.6827 315.6241)" class="st8" width="58.78" height="98.22"/>
	
		<rect x="178.81" y="220.49" transform="matrix(0.866 0.5 -0.5 0.866 152.4615 -78.6725)" class="st9" width="88.44" height="49.33"/>
	<circle class="st9" cx="195.44" cy="229.62" r="5.89"/>
	<circle class="st9" cx="249.72" cy="260.95" r="5.89"/>
	<text transform="matrix(0.866 0.5 -0.5 0.866 205.387 253.2756)" class="st10 st11 st12">₽</text>
</g>
<g>
	
		<rect x="248.64" y="174.61" transform="matrix(0.866 -0.5 0.5 0.866 -74.613 168.9887)" class="st8" width="58.78" height="98.22"/>
	
		<rect x="233.76" y="199.21" transform="matrix(0.5 0.866 -0.866 0.5 332.8771 -128.8046)" class="st9" width="88.44" height="49.33"/>
	<circle class="st9" cx="261.86" cy="196.62" r="5.89"/>
	<circle class="st9" cx="293.2" cy="250.9" r="5.89"/>
	<text transform="matrix(0.5 0.866 -0.866 0.5 258.6455 222.0815)" class="st10 st11 st12">₽</text>
</g>
<g>
	<g>
		<circle class="st13" cx="266.08" cy="255.06" r="24.22"/>
		<text transform="matrix(0.5 -0.866 0.866 0.5 273.0898 267.2788)" class="st14 st11 st15">₽</text>
	</g>
	<circle class="st16" cx="266.08" cy="255.06" r="18.93"/>
</g>
<path class="st17" d="M357.09,331.23h-94.22c-7.12,0-12.89-5.77-12.89-12.89v-60.44c0-7.12,5.77-12.89,12.89-12.89h94.22
	c7.12,0,12.89,5.77,12.89,12.89v60.44C369.98,325.46,364.21,331.23,357.09,331.23z"/>
<path class="st18" d="M349.76,269.45h-80.89c-4.79,0-8.67-3.88-8.67-8.67v0c0-4.79,3.88-8.67,8.67-8.67h80.89
	c4.79,0,8.67,3.88,8.67,8.67v0C358.42,265.57,354.54,269.45,349.76,269.45z"/>
<path class="st19" d="M275.38,297.2h-7.75c-4.1,0-7.43-3.33-7.43-7.43v-7.75c0-4.1,3.33-7.43,7.43-7.43h7.75
	c4.1,0,7.43,3.33,7.43,7.43v7.75C282.81,293.87,279.48,297.2,275.38,297.2z"/>
<path class="st19" d="M306.52,325.89h-7.75c-4.1,0-7.43-3.33-7.43-7.43v-7.75c0-4.1,3.33-7.43,7.43-7.43h7.75
	c4.1,0,7.43,3.33,7.43,7.43v7.75C313.95,322.57,310.62,325.89,306.52,325.89z"/>
<path class="st19" d="M275.38,325.89h-7.75c-4.1,0-7.43-3.33-7.43-7.43v-7.75c0-4.1,3.33-7.43,7.43-7.43h7.75
	c4.1,0,7.43,3.33,7.43,7.43v7.75C282.81,322.57,279.48,325.89,275.38,325.89z"/>
<path class="st19" d="M306.52,297.2h-7.75c-4.1,0-7.43-3.33-7.43-7.43v-7.75c0-4.1,3.33-7.43,7.43-7.43h7.75
	c4.1,0,7.43,3.33,7.43,7.43v7.75C313.95,293.87,310.62,297.2,306.52,297.2z"/>
<path class="st19" d="M344.77,325.89h-9.14c-5.58,0-10.1-4.52-10.1-10.1v-31.11c0-5.58,4.52-10.1,10.1-10.1h9.14
	c5.58,0,10.1,4.52,10.1,10.1v31.11C354.87,321.37,350.35,325.89,344.77,325.89z"/>
<line class="st20" x1="328.52" y1="297.2" x2="351.88" y2="297.2"/>
<line class="st20" x1="328.52" y1="303.29" x2="351.88" y2="303.29"/>
<line class="st21" x1="264.39" y1="285.89" x2="278.62" y2="285.89"/>
<line class="st21" x1="271.5" y1="293.01" x2="271.5" y2="278.78"/>
<line class="st21" x1="295.54" y1="285.89" x2="309.76" y2="285.89"/>
<line class="st21" x1="275.06" y1="320.75" x2="267.95" y2="308.43"/>
<line class="st21" x1="267.95" y1="320.75" x2="275.06" y2="308.43"/>
<line class="st21" x1="295.54" y1="314.59" x2="309.76" y2="314.59"/>
<line class="st21" x1="300.55" y1="311.23" x2="304.74" y2="311.23"/>
<line class="st21" x1="300.55" y1="317.96" x2="304.74" y2="317.96"/>
<line class="st22" x1="275.95" y1="253.42" x2="267.06" y2="268.15"/>
<line class="st22" x1="287.5" y1="253.42" x2="278.62" y2="268.15"/>
<line class="st22" x1="313.76" y1="253.77" x2="304.87" y2="268.5"/>
<line class="st22" x1="299.98" y1="253.77" x2="291.09" y2="268.5"/>
<text transform="matrix(0.9904 0 0 1 311.5756 267.3794)" class="st23 st24 st25">234</text>
<polyline class="st3" points="51.59,277.04 56.02,266.96 56.02,277.06 "/>
</svg>
