<?xml version="1.0" encoding="utf-8"?>
<!-- Generator: Adobe Illustrator 26.4.1, SVG Export Plug-In . SVG Version: 6.00 Build 0)  -->
<svg version="1.1" id="Слой_1" xmlns="http://www.w3.org/2000/svg" xmlns:xlink="http://www.w3.org/1999/xlink" x="0px" y="0px"
	 viewBox="0 0 320.5 315" style="enable-background:new 0 0 320.5 315;" xml:space="preserve">
<style type="text/css">
	.st0{fill:#8E9DE7;stroke:#FFFFFF;stroke-width:7;stroke-miterlimit:10;}
	.st1{fill:#3FC6FF;}
	.st2{fill:none;stroke:#000000;stroke-width:2;stroke-miterlimit:10;}
	.st3{fill:#AEE2F4;stroke:#85C690;stroke-width:7;stroke-miterlimit:10;}
	.st4{fill:#85C690;stroke:#85C690;stroke-width:7;stroke-miterlimit:10;}
	.st5{fill:#717271;stroke:#FFFFFF;stroke-width:7;stroke-miterlimit:10;}
	.st6{fill:#A81B1B;}
	.st7{fill:none;stroke:#000000;stroke-miterlimit:10;}
	.st8{fill:#B0BDEA;stroke:#000000;stroke-width:2;stroke-miterlimit:10;}
	.st9{fill:#020202;stroke:#000000;stroke-width:3;stroke-miterlimit:10;}
	.st10{stroke:#000000;stroke-width:0.75;stroke-miterlimit:10;}
	.st11{fill:#00070A;stroke:#000000;stroke-miterlimit:10;}
	.st12{fill:#000405;stroke:#000000;stroke-miterlimit:10;}
</style>
<circle class="st0" cx="157.91" cy="157.72" r="148.33"/>
<path class="st1" d="M34.63,229.13"/>
<path class="st2" d="M157.88,226.06c-0.29,7.27-0.96,32.23,14.14,43.17c23,16.66,72.52-6.49,88.5-42
	c6.46-14.35,6.24-28.06,5.5-35.83"/>
<path class="st3" d="M219.03,222.89H96.8c-5.09,0-9.22-4.13-9.22-9.22V48.11c0-5.09,4.13-9.22,9.22-9.22h122.23
	c5.09,0,9.22,4.13,9.22,9.22v165.56C228.25,218.76,224.12,222.89,219.03,222.89z"/>
<path class="st2" d="M157.66,192.54c0.03,5.24,0.06,10.48,0.09,15.72"/>
<rect x="90.02" y="210.22" class="st4" width="136.33" height="7.17"/>
<circle class="st5" cx="157.91" cy="216.72" r="2.92"/>
<path class="st6" d="M131.44,80.08c-7.71,8.62,9.18,48.7,28,48.23c18.44-0.45,33.73-39.73,25.4-48.97
	c-3.84-4.27-14.34-3.95-19.6,0.7c-5.39,4.77-4.49,13.38-6.88,13.51c-2.28,0.12-2.35-7.7-7.92-12.24
	C144.94,76.83,134.9,76.22,131.44,80.08z"/>
<path class="st7" d="M145.35,57.56c-16.71-2.79-25.36,0.81-30.17,5.17c-22.24,20.16-7.45,74.03,13.06,105.44
	c6.7,10.26,15.83,23.83,28.77,24.06c13.27,0.23,23.1-13.7,30.1-23.91c21.64-31.55,38.42-87,15.31-105.34
	c-3.86-3.06-12.45-7.96-30.42-5.08"/>
<path class="st7" d="M132.34,174.25c1.77,1.75,10.79,10.31,25.07,10.42c14.33,0.11,23.5-8.36,25.28-10.07"/>
<circle class="st8" cx="265.71" cy="178.14" r="13.25"/>
<circle class="st9" cx="265.71" cy="178.14" r="5.67"/>
<path class="st10" d="M268.37,190.85h-5c-1.16,0-2.09-0.94-2.09-2.09v-5c0-1.16,0.94-2.09,2.09-2.09h5c1.16,0,2.09,0.94,2.09,2.09v5
	C270.46,189.91,269.53,190.85,268.37,190.85z"/>
<path class="st11" d="M145.02,56.3l1.17,0.33c0.24,0.07,0.38,0.32,0.31,0.57l-0.36,1.4c-0.06,0.25-0.31,0.39-0.54,0.33l-1.17-0.33
	c-0.24-0.07-0.38-0.32-0.31-0.57l0.36-1.4C144.54,56.38,144.79,56.24,145.02,56.3z"/>
<circle class="st12" cx="147.87" cy="58.29" r="1.6"/>
<path class="st11" d="M171.2,56.92l-1.17,0.33c-0.24,0.07-0.38,0.32-0.31,0.57l0.36,1.4c0.06,0.25,0.31,0.39,0.54,0.33l1.17-0.33
	c0.24-0.07,0.38-0.32,0.31-0.57l-0.36-1.4C171.68,57,171.43,56.85,171.2,56.92z"/>
<circle class="st12" cx="168.35" cy="58.91" r="1.6"/>
</svg>
