<svg id="visual" viewBox="0 0 540 960" width="540" height="960" xmlns="http://www.w3.org/2000/svg" xmlns:xlink="http://www.w3.org/1999/xlink" version="1.1"><rect x="0" y="0" width="540" height="960" fill="#ffffff"></rect><defs><linearGradient id="grad1_0" x1="0%" y1="0%" x2="100%" y2="100%"><stop offset="30%" stop-color="#6ab7ef" stop-opacity="1"></stop><stop offset="70%" stop-color="#6ab7ef" stop-opacity="1"></stop></linearGradient></defs><defs><linearGradient id="grad1_1" x1="0%" y1="0%" x2="100%" y2="100%"><stop offset="30%" stop-color="#6ab7ef" stop-opacity="1"></stop><stop offset="70%" stop-color="#84c1f1" stop-opacity="1"></stop></linearGradient></defs><defs><linearGradient id="grad1_2" x1="0%" y1="0%" x2="100%" y2="100%"><stop offset="30%" stop-color="#9bcbf4" stop-opacity="1"></stop><stop offset="70%" stop-color="#84c1f1" stop-opacity="1"></stop></linearGradient></defs><defs><linearGradient id="grad1_3" x1="0%" y1="0%" x2="100%" y2="100%"><stop offset="30%" stop-color="#9bcbf4" stop-opacity="1"></stop><stop offset="70%" stop-color="#b1d5f6" stop-opacity="1"></stop></linearGradient></defs><defs><linearGradient id="grad1_4" x1="0%" y1="0%" x2="100%" y2="100%"><stop offset="30%" stop-color="#c5e0f9" stop-opacity="1"></stop><stop offset="70%" stop-color="#b1d5f6" stop-opacity="1"></stop></linearGradient></defs><defs><linearGradient id="grad1_5" x1="0%" y1="0%" x2="100%" y2="100%"><stop offset="30%" stop-color="#c5e0f9" stop-opacity="1"></stop><stop offset="70%" stop-color="#d9eafb" stop-opacity="1"></stop></linearGradient></defs><defs><linearGradient id="grad1_6" x1="0%" y1="0%" x2="100%" y2="100%"><stop offset="30%" stop-color="#ecf4fd" stop-opacity="1"></stop><stop offset="70%" stop-color="#d9eafb" stop-opacity="1"></stop></linearGradient></defs><defs><linearGradient id="grad1_7" x1="0%" y1="0%" x2="100%" y2="100%"><stop offset="30%" stop-color="#ecf4fd" stop-opacity="1"></stop><stop offset="70%" stop-color="#ffffff" stop-opacity="1"></stop></linearGradient></defs><defs><linearGradient id="grad2_0" x1="0%" y1="0%" x2="100%" y2="100%"><stop offset="30%" stop-color="#6ab7ef" stop-opacity="1"></stop><stop offset="70%" stop-color="#6ab7ef" stop-opacity="1"></stop></linearGradient></defs><defs><linearGradient id="grad2_1" x1="0%" y1="0%" x2="100%" y2="100%"><stop offset="30%" stop-color="#84c1f1" stop-opacity="1"></stop><stop offset="70%" stop-color="#6ab7ef" stop-opacity="1"></stop></linearGradient></defs><defs><linearGradient id="grad2_2" x1="0%" y1="0%" x2="100%" y2="100%"><stop offset="30%" stop-color="#84c1f1" stop-opacity="1"></stop><stop offset="70%" stop-color="#9bcbf4" stop-opacity="1"></stop></linearGradient></defs><defs><linearGradient id="grad2_3" x1="0%" y1="0%" x2="100%" y2="100%"><stop offset="30%" stop-color="#b1d5f6" stop-opacity="1"></stop><stop offset="70%" stop-color="#9bcbf4" stop-opacity="1"></stop></linearGradient></defs><defs><linearGradient id="grad2_4" x1="0%" y1="0%" x2="100%" y2="100%"><stop offset="30%" stop-color="#b1d5f6" stop-opacity="1"></stop><stop offset="70%" stop-color="#c5e0f9" stop-opacity="1"></stop></linearGradient></defs><defs><linearGradient id="grad2_5" x1="0%" y1="0%" x2="100%" y2="100%"><stop offset="30%" stop-color="#d9eafb" stop-opacity="1"></stop><stop offset="70%" stop-color="#c5e0f9" stop-opacity="1"></stop></linearGradient></defs><defs><linearGradient id="grad2_6" x1="0%" y1="0%" x2="100%" y2="100%"><stop offset="30%" stop-color="#d9eafb" stop-opacity="1"></stop><stop offset="70%" stop-color="#ecf4fd" stop-opacity="1"></stop></linearGradient></defs><defs><linearGradient id="grad2_7" x1="0%" y1="0%" x2="100%" y2="100%"><stop offset="30%" stop-color="#ffffff" stop-opacity="1"></stop><stop offset="70%" stop-color="#ecf4fd" stop-opacity="1"></stop></linearGradient></defs><g transform="translate(540, 0)"><path d="M0 540C-49.4 514.4 -98.8 488.8 -154.8 476.5C-210.8 464.1 -273.3 465 -317.4 436.9C-361.5 408.7 -387.2 351.6 -415.8 302.1C-444.5 252.6 -476.2 210.7 -497.4 161.6C-518.6 112.5 -529.3 56.3 -540 0L0 0Z" fill="#f6fafe"></path><path d="M0 472.5C-43.2 450.1 -86.5 427.7 -135.5 416.9C-184.4 406.1 -239.1 406.9 -277.7 382.3C-316.3 357.7 -338.8 307.7 -363.9 264.4C-388.9 221 -416.7 184.4 -435.2 141.4C-453.8 98.5 -463.1 49.2 -472.5 0L0 0Z" fill="#e3effc"></path><path d="M0 405C-37.1 385.8 -74.1 366.6 -116.1 357.4C-158.1 348.1 -205 348.7 -238.1 327.7C-271.1 306.6 -290.4 263.7 -311.9 226.6C-333.4 189.5 -357.2 158 -373.1 121.2C-388.9 84.4 -397 42.2 -405 0L0 0Z" fill="#cfe5fa"></path><path d="M0 337.5C-30.9 321.5 -61.8 305.5 -96.8 297.8C-131.7 290.1 -170.8 290.6 -198.4 273C-225.9 255.5 -242 219.8 -259.9 188.8C-277.8 157.9 -297.6 131.7 -310.9 101C-324.1 70.3 -330.8 35.2 -337.5 0L0 0Z" fill="#bbdaf7"></path><path d="M0 270C-24.7 257.2 -49.4 244.4 -77.4 238.2C-105.4 232.1 -136.7 232.5 -158.7 218.4C-180.7 204.4 -193.6 175.8 -207.9 151.1C-222.3 126.3 -238.1 105.4 -248.7 80.8C-259.3 56.3 -264.6 28.1 -270 0L0 0Z" fill="#a6d0f5"></path><path d="M0 202.5C-18.5 192.9 -37.1 183.3 -58.1 178.7C-79 174 -102.5 174.4 -119 163.8C-135.6 153.3 -145.2 131.9 -155.9 113.3C-166.7 94.7 -178.6 79 -186.5 60.6C-194.5 42.2 -198.5 21.1 -202.5 0L0 0Z" fill="#90c6f3"></path><path d="M0 135C-12.4 128.6 -24.7 122.2 -38.7 119.1C-52.7 116 -68.3 116.2 -79.4 109.2C-90.4 102.2 -96.8 87.9 -104 75.5C-111.1 63.2 -119.1 52.7 -124.4 40.4C-129.6 28.1 -132.3 14.1 -135 0L0 0Z" fill="#78bcf0"></path><path d="M0 67.5C-6.2 64.3 -12.4 61.1 -19.4 59.6C-26.3 58 -34.2 58.1 -39.7 54.6C-45.2 51.1 -48.4 44 -52 37.8C-55.6 31.6 -59.5 26.3 -62.2 20.2C-64.8 14.1 -66.2 7 -67.5 0L0 0Z" fill="#6ab7ef"></path></g><g transform="translate(0, 960)"><path d="M0 -540C40.1 -487.4 80.1 -434.9 138.7 -427C197.3 -419.2 274.5 -456.1 317.4 -436.9C360.3 -417.6 369.1 -342.2 399.7 -290.4C430.3 -238.5 482.7 -210.1 509.8 -165.6C536.8 -121.2 538.4 -60.6 540 0L0 0Z" fill="#f6fafe"></path><path d="M0 -472.5C35.1 -426.5 70.1 -380.5 121.4 -373.6C172.7 -366.8 240.2 -399.1 277.7 -382.3C315.3 -365.4 322.9 -299.5 349.7 -254.1C376.5 -208.7 422.4 -183.8 446 -144.9C469.7 -106 471.1 -53 472.5 0L0 0Z" fill="#e3effc"></path><path d="M0 -405C30.1 -365.6 60.1 -326.1 104.1 -320.3C148 -314.4 205.9 -342.1 238.1 -327.7C270.2 -313.2 276.8 -256.7 299.7 -217.8C322.7 -178.9 362 -157.6 382.3 -124.2C402.6 -90.9 403.8 -45.4 405 0L0 0Z" fill="#cfe5fa"></path><path d="M0 -337.5C25 -304.6 50.1 -271.8 86.7 -266.9C123.3 -262 171.5 -285.1 198.4 -273C225.2 -261 230.7 -213.9 249.8 -181.5C268.9 -149.1 301.7 -131.3 318.6 -103.5C335.5 -75.7 336.5 -37.9 337.5 0L0 0Z" fill="#bbdaf7"></path><path d="M0 -270C20 -243.7 40.1 -217.4 69.4 -213.5C98.7 -209.6 137.2 -228.1 158.7 -218.4C180.2 -208.8 184.5 -171.1 199.8 -145.2C215.1 -119.2 241.4 -105.1 254.9 -82.8C268.4 -60.6 269.2 -30.3 270 0L0 0Z" fill="#a6d0f5"></path><path d="M0 -202.5C15 -182.8 30.1 -163.1 52 -160.1C74 -157.2 102.9 -171 119 -163.8C135.1 -156.6 138.4 -128.3 149.9 -108.9C161.3 -89.4 181 -78.8 191.2 -62.1C201.3 -45.4 201.9 -22.7 202.5 0L0 0Z" fill="#90c6f3"></path><path d="M0 -135C10 -121.9 20 -108.7 34.7 -106.8C49.3 -104.8 68.6 -114 79.4 -109.2C90.1 -104.4 92.3 -85.6 99.9 -72.6C107.6 -59.6 120.7 -52.5 127.4 -41.4C134.2 -30.3 134.6 -15.1 135 0L0 0Z" fill="#78bcf0"></path><path d="M0 -67.5C5 -60.9 10 -54.4 17.3 -53.4C24.7 -52.4 34.3 -57 39.7 -54.6C45 -52.2 46.1 -42.8 50 -36.3C53.8 -29.8 60.3 -26.3 63.7 -20.7C67.1 -15.1 67.3 -7.6 67.5 0L0 0Z" fill="#6ab7ef"></path></g></svg>