<?xml version="1.0" encoding="utf-8"?>
<!-- Generator: Adobe Illustrator 26.4.1, SVG Export Plug-In . SVG Version: 6.00 Build 0)  -->
<svg version="1.1" id="Слой_1" xmlns="http://www.w3.org/2000/svg" xmlns:xlink="http://www.w3.org/1999/xlink" x="0px" y="0px"
	 viewBox="0 0 366 326" style="enable-background:new 0 0 366 326;" xml:space="preserve">
<style type="text/css">
	.st0{fill:#8E9DE7;stroke:#FFFFFF;stroke-width:7;stroke-miterlimit:10;}
	.st1{fill:#3FC6FF;}
	.st2{fill:#85C690;}
	.st3{fill:#B74949;}
	.st4{fill:#3D5C89;}
	.st5{fill:#CCA887;}
	.st6{fill:#8987CC;}
	.st7{fill:none;stroke:#D1C769;stroke-width:5;stroke-miterlimit:10;}
	.st8{fill:#DEE0DD;}
</style>
<circle class="st0" cx="168.41" cy="158.72" r="148.33"/>
<path class="st1" d="M45.13,230.13"/>
<rect x="90.72" y="140.86" class="st2" width="15.6" height="122.27"/>
<rect x="230.5" y="62.86" class="st3" width="15.6" height="200.27"/>
<rect x="194.5" y="93.13" class="st4" width="15.6" height="170"/>
<rect x="158.5" y="123.13" class="st5" width="15.6" height="140"/>
<rect x="123.89" y="113.13" class="st6" width="15.6" height="150"/>
<polyline class="st7" points="230.5,45.22 166.3,116.56 131.69,101.97 81.85,136.06 "/>
<polyline class="st7" points="212.94,50.22 232.27,41.56 232.27,58.22 "/>
<path class="st8" d="M103.16,279.93h-9.28c-0.75,0-1.36-0.61-1.36-1.36v-9.28c0-0.75,0.61-1.36,1.36-1.36h9.28
	c0.75,0,1.36,0.61,1.36,1.36v9.28C104.52,279.32,103.91,279.93,103.16,279.93z"/>
<path class="st8" d="M242.95,279.93h-9.28c-0.75,0-1.36-0.61-1.36-1.36v-9.28c0-0.75,0.61-1.36,1.36-1.36h9.28
	c0.75,0,1.36,0.61,1.36,1.36v9.28C244.31,279.32,243.7,279.93,242.95,279.93z"/>
<path class="st8" d="M206.94,279.93h-9.28c-0.75,0-1.36-0.61-1.36-1.36v-9.28c0-0.75,0.61-1.36,1.36-1.36h9.28
	c0.75,0,1.36,0.61,1.36,1.36v9.28C208.3,279.32,207.7,279.93,206.94,279.93z"/>
<path class="st8" d="M170.94,279.93h-9.28c-0.75,0-1.36-0.61-1.36-1.36v-9.28c0-0.75,0.61-1.36,1.36-1.36h9.28
	c0.75,0,1.36,0.61,1.36,1.36v9.28C172.3,279.32,171.69,279.93,170.94,279.93z"/>
<path class="st8" d="M136.33,279.93h-9.28c-0.75,0-1.36-0.61-1.36-1.36v-9.28c0-0.75,0.61-1.36,1.36-1.36h9.28
	c0.75,0,1.36,0.61,1.36,1.36v9.28C137.69,279.32,137.08,279.93,136.33,279.93z"/>
</svg>
