<?xml version="1.0" encoding="utf-8"?>
<!-- Generator: Adobe Illustrator 26.4.1, SVG Export Plug-In . SVG Version: 6.00 Build 0)  -->
<svg version="1.1" id="Слой_1" xmlns="http://www.w3.org/2000/svg" xmlns:xlink="http://www.w3.org/1999/xlink" x="0px" y="0px"
	 viewBox="0 0 333 306" style="enable-background:new 0 0 333 306;" xml:space="preserve">
<style type="text/css">
	.st0{fill:#8E9DE7;stroke:#FFFFFF;stroke-width:7;stroke-miterlimit:10;}
	.st1{fill:#3FC6FF;}
	.st2{fill:#8CC599;}
	.st3{fill:#8CC599;stroke:#407F55;stroke-width:4;stroke-miterlimit:10;}
	.st4{fill:#2A5136;}
	.st5{font-family:'TimesNewRomanPSMT';}
	.st6{font-size:48px;}
	.st7{fill:#D19534;}
	.st8{fill:#FBD254;}
	.st9{font-size:36px;}
	.st10{fill:none;stroke:#FFE252;stroke-width:4;stroke-miterlimit:10;}
	.st11{fill:#FFFFFF;stroke:#0E2641;stroke-width:4;stroke-miterlimit:10;}
	.st12{fill:#0E2641;stroke:#0E2641;stroke-width:9;stroke-miterlimit:10;}
	.st13{fill:#041E35;stroke:#072233;stroke-width:9;stroke-miterlimit:10;}
	.st14{fill:#DEE0DD;}
	.st15{fill:#CCA887;}
	.st16{fill:#A1CC85;}
	.st17{fill:#8987CC;}
	.st18{fill:#B86543;}
</style>
<circle class="st0" cx="164.08" cy="152.82" r="148.33"/>
<path class="st1" d="M9.02,229.72"/>
<g>
	<rect x="48.4" y="36.31" transform="matrix(0.866 -0.5 0.5 0.866 -32.2881 50.3372)" class="st2" width="58.78" height="98.22"/>
	<rect x="33.52" y="60.91" transform="matrix(0.5 0.866 -0.866 0.5 112.9793 -24.5405)" class="st3" width="88.44" height="49.33"/>
	<circle class="st3" cx="61.62" cy="58.32" r="5.89"/>
	<circle class="st3" cx="92.96" cy="112.59" r="5.89"/>
	<text transform="matrix(0.5 0.866 -0.866 0.5 58.4004 83.7766)" class="st4 st5 st6">₽</text>
</g>
<g>
	
		<rect x="38.12" y="102.63" transform="matrix(0.5 -0.866 0.866 0.5 -97.6599 134.3381)" class="st2" width="58.78" height="98.22"/>
	<rect x="23.33" y="127.23" transform="matrix(0.866 0.5 -0.5 0.866 84.9999 -13.4237)" class="st3" width="88.44" height="49.33"/>
	<circle class="st3" cx="39.96" cy="136.36" r="5.89"/>
	<circle class="st3" cx="94.23" cy="167.69" r="5.89"/>
	<text transform="matrix(0.866 0.5 -0.5 0.866 49.9001 160.0149)" class="st4 st5 st6">₽</text>
</g>
<g>
	<g>
		<circle class="st7" cx="99.88" cy="121.2" r="24.22"/>
		<text transform="matrix(0.5 -0.866 0.866 0.5 106.8943 133.4194)" class="st8 st5 st9">₽</text>
	</g>
	<circle class="st10" cx="99.88" cy="121.2" r="18.93"/>
</g>
<path class="st11" d="M312.38,184.53H110.23c-7.02,0-12.7-5.69-12.7-12.7v-84.6c0-7.02,5.69-12.7,12.7-12.7h202.15
	c7.02,0,12.7,5.69,12.7,12.7v84.6C325.08,178.84,319.39,184.53,312.38,184.53z"/>
<path class="st12" d="M104.3,190.04l-24.58,33.03c-0.1,0.13-0.02,0.34,0.13,0.34h223.5c0.07,0,0.13-0.05,0.16-0.13l12.5-34.59
	c0.05-0.14-0.04-0.29-0.16-0.29l-211.41,1.55C104.38,189.97,104.34,190,104.3,190.04z"/>
<polygon class="st13" points="105.57,194.34 88.02,213.45 297.13,213.45 304.69,194.34 "/>
<path class="st14" d="M220.77,122.14h-80.71c-2.56,0-4.64-2.08-4.64-4.64v-9.38c0-2.56,2.08-4.64,4.64-4.64h80.71
	c2.56,0,4.64,2.08,4.64,4.64v9.38C225.41,120.06,223.34,122.14,220.77,122.14z"/>
<path class="st14" d="M220.77,149.06h-80.71c-2.56,0-4.64-2.08-4.64-4.64v-9.38c0-2.56,2.08-4.64,4.64-4.64h80.71
	c2.56,0,4.64,2.08,4.64,4.64v9.38C225.41,146.98,223.34,149.06,220.77,149.06z"/>
<path class="st14" d="M220.77,175.97h-80.71c-2.56,0-4.64-2.08-4.64-4.64v-9.38c0-2.56,2.08-4.64,4.64-4.64h80.71
	c2.56,0,4.64,2.08,4.64,4.64v9.38C225.41,173.9,223.34,175.97,220.77,175.97z"/>
<path class="st15" d="M126.17,175.97h-13.85c-1.15,0-2.08-0.93-2.08-2.08v-14.51c0-1.15,0.93-2.08,2.08-2.08h13.85
	c1.15,0,2.08,0.93,2.08,2.08v14.51C128.25,175.04,127.32,175.97,126.17,175.97z"/>
<path class="st16" d="M126.17,121.22h-13.85c-1.15,0-2.08-0.93-2.08-2.08v-14.51c0-1.15,0.93-2.08,2.08-2.08h13.85
	c1.15,0,2.08,0.93,2.08,2.08v14.51C128.25,120.29,127.32,121.22,126.17,121.22z"/>
<path class="st17" d="M126.17,149.06h-13.85c-1.15,0-2.08-0.93-2.08-2.08v-14.51c0-1.15,0.93-2.08,2.08-2.08h13.85
	c1.15,0,2.08,0.93,2.08,2.08v14.51C128.25,148.13,127.32,149.06,126.17,149.06z"/>
<ellipse transform="matrix(0.9239 -0.3827 0.3827 0.9239 -32.427 116.4268)" class="st16" cx="276.45" cy="139.72" rx="36.25" ry="36.25"/>
<path class="st17" d="M276.45,103.47v36.25l20.05,30.2c12.4-8.62,18.48-23.66,15.39-37.85
	C308.38,115.98,293.74,103.96,276.45,103.47z"/>
<path class="st15" d="M276.45,139.72l20.05,30.2c-0.82,0.54-17.64,11.22-35.8,2.45c-11.81-5.7-19.64-17.42-20.43-30.56
	C252.32,141.12,264.38,140.42,276.45,139.72z"/>
<g>
	<g>
		<path class="st18" d="M121.74,84.01h9.17v11.74h-2.65v-9.51h-3.86v9.51h-2.65V84.01z"/>
		<path class="st18" d="M132.1,95.79l0.48-2.39c0.15,0.04,0.29,0.08,0.5,0.08c0.59,0,1-0.28,1.55-2.8c0.47-2.19,0.85-4.41,1.26-6.67
			h6.84v11.74h-2.65v-9.51h-2.15c-0.29,1.67-0.57,3.18-0.86,4.72c-0.76,3.94-1.73,5.01-3.6,5.01
			C132.85,95.96,132.48,95.92,132.1,95.79z"/>
		<path class="st18" d="M147.68,84.01h3.17l3.69,11.74h-2.81l-1.54-5.94c-0.33-1.17-0.64-2.56-0.95-3.79h-0.07
			c-0.28,1.24-0.6,2.61-0.92,3.79l-1.54,5.94h-2.71L147.68,84.01z M146.42,90.89h5.65v2.06h-5.65V90.89z"/>
		<path class="st18" d="M155.81,84.01h2.65v4.52h4.05v-4.52h2.65v11.74h-2.65v-4.9h-4.05v4.9h-2.65V84.01z"/>
		<path class="st18" d="M167.94,84.01h2.62v4.15c0,1.38-0.21,3.03-0.34,4.27h0.07l1.16-2.57l3.08-5.84h2.81v11.74h-2.62v-4.17
			c0-1.38,0.21-2.96,0.34-4.25h-0.07l-1.16,2.56l-3.08,5.86h-2.81V84.01z"/>
		<path class="st18" d="M180.11,84.01h4.03c2.58,0,4.66,0.92,4.66,3.78c0,2.76-2.11,3.98-4.59,3.98h-1.45v3.98h-2.65V84.01z
			 M184.06,89.66c1.46,0,2.15-0.65,2.15-1.87c0-1.23-0.79-1.67-2.22-1.67h-1.22v3.54H184.06z"/>
		<path class="st18" d="M190.28,89.83c0-3.83,2.17-6.03,5.33-6.03s5.33,2.21,5.33,6.03c0,3.83-2.17,6.13-5.33,6.13
			S190.28,93.66,190.28,89.83z M198.22,89.83c0-2.35-1.01-3.74-2.61-3.74S193,87.47,193,89.83s1.01,3.84,2.61,3.84
			S198.22,92.18,198.22,89.83z"/>
		<path class="st18" d="M203.15,84.01h4.02c2.44,0,4.33,0.67,4.33,2.91c0,1.05-0.59,2.17-1.55,2.53v0.07
			c1.2,0.31,2.12,1.19,2.12,2.76c0,2.39-2.02,3.46-4.57,3.46h-4.35V84.01z M207.04,88.71c1.29,0,1.86-0.54,1.86-1.4
			c0-0.9-0.6-1.26-1.84-1.26h-1.26v2.65H207.04z M207.29,93.7c1.45,0,2.19-0.51,2.19-1.58c0-1.03-0.74-1.45-2.19-1.45h-1.48v3.03
			H207.29z"/>
		<path class="st18" d="M216.22,84.01h3.17l3.69,11.74h-2.81l-1.54-5.94c-0.33-1.17-0.64-2.56-0.95-3.79h-0.07
			c-0.28,1.24-0.6,2.61-0.92,3.79l-1.54,5.94h-2.71L216.22,84.01z M214.97,90.89h5.65v2.06h-5.65V90.89z"/>
		<path class="st18" d="M224.35,84.01h2.65v4.52h4.05v-4.52h2.65v11.74h-2.65v-4.9h-4.05v4.9h-2.65V84.01z"/>
		<path class="st18" d="M236.49,84.01h2.62v4.15c0,1.38-0.21,3.03-0.34,4.27h0.07l1.16-2.57l3.08-5.84h2.81v11.74h-2.62v-4.17
			c0-1.38,0.21-2.96,0.34-4.25h-0.07l-1.16,2.56l-3.08,5.86h-2.81V84.01z"/>
		<path class="st18" d="M248.65,84.01h7.35v2.23h-4.7v2.36h4v2.23h-4v2.7h4.88v2.23h-7.53V84.01z"/>
	</g>
</g>
</svg>
